:SAMPLES-PER-SECOND 30
:FULLY-SPECIFIED
:DEGREES
192
root  28.4625 36.8413 0.886821 -8.14514 85.8937 0.178741
RightUpLeg  1.70222 -6.12959 -2.97864
RightLeg  43.7054 -3.19354 -3.58543
RightFoot  -29.2822 0.4391 3.9951
RightToes  0.000482159 0.542163 -0.142577
Spine  29.3549 -0.377833 8.17932
Spine1  11.8107 3.43219 -5.48879
HEad  -8.12935 6.97016 -7.22824
LeftShoulder1  10.8496 -15.8404 -48.9699
LeftArm  -9.92186 32.452 -15.1629
LeftForeArm  15.7022 -17.9022 -3.74035
LeftHand  -0.25398 0.0180481 5.50724
RightShoulder  6.70304 11.4902 38.6317
RightArm  3.76049 -8.55409 31.4171
RightForeArm  -10.1732 27.9074 6.54939
RightHand  -1.8487 4.63007 -21.5322
LeftUpLeg  -19.0874 5.69697 4.52711
LeftLeg  -1.76495 17.1273 -6.92441
LeftFoot  12.2883 0.934771 -4.86632
LeftToes  1.06246e-005 4.65854e-005 -8.18503e-006
193
root  27.1124 36.9387 1.07506 -21.0321 86.3777 -12.4509
RightUpLeg  -0.0525583 -8.57313 -1.85589
RightLeg  43.3525 -3.16942 -3.51273
RightFoot  -28.384 0.0513576 1.63066
RightToes  0.000482159 0.542163 -0.142577
Spine  28.5338 -0.726655 9.61009
Spine1  11.9184 3.24185 -5.21275
HEad  -8.62789 7.3571 -8.21206
LeftShoulder1  10.5087 -15.1586 -49.1625
LeftArm  -12.5679 34.1658 -16.5361
LeftForeArm  16.322 -17.2877 -3.37835
LeftHand  -0.25398 0.0180481 5.50724
RightShoulder  6.61735 11.1849 38.9633
RightArm  1.79817 -10.2839 31.3434
RightForeArm  -10.1018 27.5057 6.44889
RightHand  -1.83633 4.75861 -21.1363
LeftUpLeg  -17.9678 6.15873 5.54424
LeftLeg  -5.12275 17.1407 -7.7705
LeftFoot  7.32084 1.51394 -9.39441
LeftToes  1.06246e-005 4.65854e-005 -8.18503e-006
194
root  25.7964 37.1325 1.26443 -37.7368 87.7259 -28.9106
RightUpLeg  -1.76535 -10.6637 -1.56331
RightLeg  42.9407 -2.87483 -3.17223
RightFoot  -26.7631 -0.0913 0.668946
RightToes  0.000482159 0.542163 -0.142577
Spine  27.8106 -0.923079 9.59506
Spine1  11.9148 2.62229 -4.27112
HEad  -8.20315 7.54758 -8.18892
LeftShoulder1  10.1243 -14.7379 -48.4548
LeftArm  -14.981 35.0895 -19.1544
LeftForeArm  15.9516 -16.1418 -3.01843
LeftHand  -0.25398 0.0180481 5.50724
RightShoulder  6.54859 10.9908 39.0869
RightArm  1.07557 -11.7623 31.5817
RightForeArm  -11.2806 26.2573 6.20789
RightHand  -1.83666 4.83569 -20.9888
LeftUpLeg  -17.5643 6.05203 5.4691
LeftLeg  -5.11705 19.5416 -8.13026
LeftFoot  5.32887 1.50429 -10.4539
LeftToes  1.06246e-005 4.65854e-005 -8.18503e-006
195
root  24.512 37.4983 1.45145 -50.6241 89.8659 -41.5545
RightUpLeg  -2.82072 -12.8874 -1.83418
RightLeg  41.1807 -3.03221 -3.1362
RightFoot  -24.4496 -0.203452 -0.343244
RightToes  0.000482159 0.542163 -0.142577
Spine  27.3351 -1.08564 8.71291
Spine1  11.9282 1.92313 -3.2445
HEad  -6.84752 7.36421 -7.26551
LeftShoulder1  9.86488 -14.6324 -47.4763
LeftArm  -16.3221 35.1221 -21.7551
LeftForeArm  15.8336 -15.0132 -2.78496
LeftHand  -0.25398 0.0180481 5.50724
RightShoulder  6.46757 10.8106 39.0903
RightArm  1.5066 -13.2023 32.072
RightForeArm  -13.0511 24.6719 5.9215
RightHand  -1.80708 4.66696 -20.993
LeftUpLeg  -17.3431 6.65335 4.1308
LeftLeg  -1.58863 21.034 -7.15514
LeftFoot  5.65676 1.20006 -8.2425
LeftToes  1.06246e-005 4.65854e-005 -8.18503e-006
196
root  23.3089 37.9501 1.57197 -178.656 88.0339 -169.333
RightUpLeg  -3.24169 -15.0255 -2.10309
RightLeg  38.3928 -3.14934 -2.95969
RightFoot  -21.4469 -0.290813 -1.64919
RightToes  0.000482159 0.542163 -0.142577
Spine  26.913 -1.18965 8.44724
Spine1  11.5579 1.52433 -2.67076
HEad  -5.05718 6.78075 -6.16309
LeftShoulder1  9.761 -14.6176 -47.0046
LeftArm  -16.5137 34.236 -23.1564
LeftForeArm  18.182 -14.6676 -2.73422
LeftHand  -0.25398 0.0180481 5.50724
RightShoulder  6.36705 10.6042 39.0413
RightArm  2.87367 -14.7233 32.5856
RightForeArm  -14.1841 23.265 5.70724
RightHand  -1.68812 4.18395 -20.5957
LeftUpLeg  -18.1707 12.246 1.01312
LeftLeg  6.88174 14.9347 -2.82641
LeftFoot  4.64948 0.856837 -6.29581
LeftToes  1.06246e-005 4.65854e-005 -8.18503e-006
197
root  22.1677 38.4573 1.61292 165.734 86.8341 175.103
RightUpLeg  -3.43641 -16.5746 -2.51165
RightLeg  34.871 -2.84334 -2.39867
RightFoot  -17.9816 -0.267165 -2.48466
RightToes  0.000482159 0.542163 -0.142577
Spine  26.3488 -1.16954 8.62464
Spine1  10.9642 1.52194 -2.70754
HEad  -3.07636 6.04644 -5.5674
LeftShoulder1  9.65676 -14.4317 -46.984
LeftArm  -16.2001 32.8316 -23.601
LeftForeArm  23.4977 -15.6656 -2.75656
LeftHand  -0.25398 0.0180481 5.50724
RightShoulder  6.2449 10.4031 38.8257
RightArm  4.93189 -16.3906 33.0798
RightForeArm  -13.9738 22.3757 5.68499
RightHand  -1.47802 3.39102 -19.6639
LeftUpLeg  -18.4601 18.926 -2.33326
LeftLeg  14.5507 5.81344 1.67541
LeftFoot  2.67252 0.661832 -5.51901
LeftToes  1.06246e-005 4.65854e-005 -8.18503e-006
198
root  21.0626 38.9703 1.5911 158.464 85.9047 167.472
RightUpLeg  -3.7689 -17.9363 -3.15022
RightLeg  30.838 -2.18 -1.65975
RightFoot  -14.4008 -0.175239 -2.92631
RightToes  0.000482159 0.542163 -0.142577
Spine  25.3109 -1.02111 8.72306
Spine1  10.5233 1.74062 -2.98679
HEad  -0.592627 5.48805 -5.54395
LeftShoulder1  9.45694 -14.0997 -46.8764
LeftArm  -16.0963 31.4478 -24.0927
LeftForeArm  29.5157 -17.857 -2.76422
LeftHand  -0.25398 0.0180481 5.50724
RightShoulder  6.10584 10.2395 38.3686
RightArm  7.94727 -18.2159 33.553
RightForeArm  -13.3541 22.3517 5.67898
RightHand  -1.24588 2.38736 -18.7088
LeftUpLeg  -17.137 15.0059 -1.32847
LeftLeg  21.3902 8.06668 3.90127
LeftFoot  0.670797 0.540645 -5.18165
LeftToes  1.06246e-005 4.65854e-005 -8.18503e-006
199
root  19.9909 39.38 1.51542 154.699 85.209 163.035
RightUpLeg  -4.43912 -19.9626 -3.6792
RightLeg  26.9672 -0.932728 -0.794717
RightFoot  -11.0012 -0.0629687 -3.54516
RightToes  0.000482159 0.542163 -0.142577
Spine  23.684 -0.77222 8.89376
Spine1  10.3011 2.04292 -3.16536
HEad  2.63289 5.31633 -5.7286
LeftShoulder1  9.21474 -13.7779 -46.5173
LeftArm  -16.5903 30.332 -24.9638
LeftForeArm  33.448 -20.5937 -2.86519
LeftHand  -0.25398 0.0180481 5.50724
RightShoulder  5.95491 10.0841 37.7891
RightArm  11.643 -20.0681 33.8432
RightForeArm  -12.9261 23.2718 5.67549
RightHand  -1.07129 1.48838 -18.1564
LeftUpLeg  -15.8824 10.9635 -0.22095
LeftLeg  28.8897 10.6571 6.63391
LeftFoot  -0.984398 0.459805 -5.00715
LeftToes  1.06246e-005 4.65854e-005 -8.18503e-006
200
root  18.9172 39.6397 1.39568 153.933 84.899 161.443
RightUpLeg  -5.54964 -21.9431 -3.89798
RightLeg  23.7788 0.51097 0.329406
RightFoot  -7.93266 0.0671125 -4.08687
RightToes  0.000482159 0.542163 -0.142577
Spine  21.7543 -0.50595 9.29523
Spine1  10.2391 2.39811 -3.30935
HEad  6.26666 5.68407 -5.85524
LeftShoulder1  8.9964 -13.4886 -46.1789
LeftArm  -17.8279 29.4333 -25.7745
LeftForeArm  34.6789 -23.4948 -3.23086
LeftHand  -0.25398 0.0180481 5.50724
RightShoulder  5.80402 9.90513 37.2674
RightArm  14.9679 -21.6819 33.8532
RightForeArm  -12.0772 24.7116 5.8791
RightHand  -1.00449 1.11877 -17.9688
LeftUpLeg  -14.5444 8.28945 0.840307
LeftLeg  36.6011 11.274 9.18988
LeftFoot  -2.47793 0.372651 -4.61203
LeftToes  1.06246e-005 4.65854e-005 -8.18503e-006
201
root  17.8126 39.7834 1.24855 154.5 84.9941 161.234
RightUpLeg  -6.79543 -20.9379 -4.0704
RightLeg  21.0594 -0.37999 1.69447
RightFoot  -5.1889 0.173246 -3.8955
RightToes  0.000482159 0.542163 -0.142577
Spine  19.903 -0.319329 9.84807
Spine1  10.3384 2.74656 -3.60846
HEad  9.80271 6.68228 -5.90493
LeftShoulder1  8.82154 -13.1876 -46.0948
LeftArm  -19.5481 28.6043 -26.0785
LeftForeArm  34.6947 -26.6198 -3.87223
LeftHand  -0.25398 0.0180481 5.50724
RightShoulder  5.69011 9.75173 36.9205
RightArm  17.2933 -22.8922 33.7669
RightForeArm  -11 26.0714 6.1505
RightHand  -1.05365 1.39227 -18.1007
LeftUpLeg  -12.4263 6.71459 2.04495
LeftLeg  43.0882 10.2398 10.4599
LeftFoot  -3.8126 0.283866 -3.96322
LeftToes  1.06246e-005 4.65854e-005 -8.18503e-006
202
root  16.6661 39.8241 1.08154 156.605 85.423 162.738
RightUpLeg  -8.13158 -18.4045 -4.13976
RightLeg  18.664 -2.51917 2.86199
RightFoot  -2.66013 0.221697 -3.15621
RightToes  0.000482159 0.542163 -0.142577
Spine  18.2981 -0.263033 10.558
Spine1  10.5881 3.02679 -4.10642
HEad  13.0842 8.21138 -5.89132
LeftShoulder1  8.70244 -12.9182 -46.2213
LeftArm  -20.9905 27.7001 -25.7856
LeftForeArm  35.0254 -29.9717 -4.5939
LeftHand  -0.25398 0.0180481 5.50724
RightShoulder  5.65496 9.69244 36.8489
RightArm  18.1838 -23.7475 33.7928
RightForeArm  -10.6824 26.9006 6.3314
RightHand  -1.1913 2.02605 -18.7331
LeftUpLeg  -9.16474 5.85741 3.41338
LeftLeg  47.0477 8.47564 10.0256
LeftFoot  -4.80015 0.219239 -3.33876
LeftToes  1.06246e-005 4.65854e-005 -8.18503e-006
